<svg xmlns="http://www.w3.org/2000/svg" xmlns:xlink="http://www.w3.org/1999/xlink" width="500" zoomAndPan="magnify" viewBox="0 0 375 374.999991" height="500" preserveAspectRatio="xMidYMid meet" version="1.0"><defs><clipPath id="f9b6eaf631"><path d="M 15 255 L 97 255 L 97 337.21875 L 15 337.21875 Z M 15 255 " clip-rule="nonzero"/></clipPath></defs><path fill="#ffffff" d="M 91.613281 306.140625 C 90.296875 306.144531 89.171875 305.6875 88.238281 304.761719 L 47.550781 264.121094 C 47.332031 263.898438 47.132812 263.65625 46.960938 263.398438 C 46.785156 263.136719 46.640625 262.863281 46.519531 262.574219 C 46.398438 262.285156 46.308594 261.988281 46.246094 261.679688 C 46.1875 261.375 46.15625 261.066406 46.15625 260.753906 C 46.15625 260.4375 46.1875 260.128906 46.246094 259.824219 C 46.308594 259.515625 46.398438 259.21875 46.519531 258.929688 C 46.640625 258.640625 46.785156 258.367188 46.960938 258.105469 C 47.132812 257.847656 47.332031 257.605469 47.550781 257.382812 L 248.59375 56.632812 C 248.816406 56.414062 249.054688 56.214844 249.316406 56.042969 C 249.578125 55.867188 249.851562 55.722656 250.140625 55.601562 C 250.429688 55.484375 250.726562 55.390625 251.035156 55.332031 C 251.34375 55.269531 251.652344 55.238281 251.964844 55.238281 C 252.277344 55.238281 252.589844 55.269531 252.894531 55.332031 C 253.203125 55.390625 253.5 55.484375 253.789062 55.601562 C 254.078125 55.722656 254.355469 55.867188 254.617188 56.042969 C 254.875 56.214844 255.117188 56.414062 255.339844 56.632812 L 296.023438 97.261719 C 296.242188 97.480469 296.441406 97.722656 296.613281 97.980469 C 296.789062 98.242188 296.9375 98.515625 297.054688 98.804688 C 297.175781 99.09375 297.265625 99.390625 297.328125 99.699219 C 297.386719 100.003906 297.417969 100.316406 297.417969 100.628906 C 297.417969 100.941406 297.386719 101.25 297.328125 101.558594 C 297.265625 101.863281 297.175781 102.160156 297.054688 102.449219 C 296.9375 102.738281 296.789062 103.011719 296.613281 103.273438 C 296.441406 103.535156 296.242188 103.773438 296.023438 103.996094 L 94.984375 304.761719 C 94.050781 305.6875 92.925781 306.144531 91.613281 306.140625 Z M 57.675781 260.753906 L 91.613281 294.640625 L 285.902344 100.628906 L 251.964844 66.738281 Z M 57.675781 260.753906 " fill-opacity="1" fill-rule="nonzero"/><path fill="#ffffff" d="M 292.644531 105.390625 C 291.328125 105.390625 290.203125 104.925781 289.269531 103.996094 L 248.59375 63.371094 C 248.371094 63.148438 248.175781 62.90625 248 62.648438 C 247.828125 62.386719 247.679688 62.113281 247.558594 61.824219 C 247.441406 61.535156 247.347656 61.238281 247.289062 60.929688 C 247.226562 60.625 247.195312 60.316406 247.195312 60 C 247.195312 59.6875 247.226562 59.378906 247.289062 59.074219 C 247.347656 58.765625 247.441406 58.46875 247.558594 58.179688 C 247.679688 57.890625 247.828125 57.617188 248 57.355469 C 248.175781 57.097656 248.371094 56.855469 248.59375 56.632812 L 270.167969 35.085938 C 270.667969 34.589844 271.191406 34.117188 271.734375 33.671875 C 272.28125 33.226562 272.847656 32.808594 273.433594 32.417969 C 274.019531 32.027344 274.621094 31.667969 275.242188 31.335938 C 275.863281 31.003906 276.5 30.703125 277.152344 30.4375 C 277.804688 30.167969 278.464844 29.929688 279.140625 29.726562 C 279.816406 29.523438 280.496094 29.351562 281.1875 29.214844 C 281.878906 29.078125 282.574219 28.976562 283.277344 28.90625 C 283.976562 28.839844 284.679688 28.804688 285.382812 28.804688 C 286.089844 28.804688 286.792969 28.839844 287.492188 28.90625 C 288.195312 28.976562 288.890625 29.078125 289.582031 29.214844 C 290.273438 29.351562 290.953125 29.523438 291.628906 29.726562 C 292.304688 29.929688 292.964844 30.167969 293.617188 30.4375 C 294.269531 30.703125 294.902344 31.003906 295.527344 31.335938 C 296.148438 31.667969 296.75 32.027344 297.335938 32.417969 C 297.921875 32.808594 298.488281 33.226562 299.035156 33.671875 C 299.578125 34.117188 300.101562 34.589844 300.597656 35.085938 L 317.597656 52.058594 C 318.09375 52.554688 318.566406 53.078125 319.011719 53.621094 C 319.457031 54.164062 319.875 54.730469 320.265625 55.316406 C 320.65625 55.902344 321.019531 56.503906 321.351562 57.125 C 321.683594 57.746094 321.984375 58.378906 322.253906 59.03125 C 322.519531 59.679688 322.757812 60.34375 322.960938 61.015625 C 323.167969 61.6875 323.335938 62.371094 323.472656 63.058594 C 323.613281 63.75 323.714844 64.445312 323.785156 65.144531 C 323.851562 65.84375 323.886719 66.546875 323.886719 67.25 C 323.886719 67.953125 323.851562 68.65625 323.785156 69.355469 C 323.714844 70.054688 323.613281 70.75 323.472656 71.441406 C 323.335938 72.132812 323.167969 72.8125 322.960938 73.484375 C 322.757812 74.160156 322.519531 74.820312 322.253906 75.472656 C 321.984375 76.121094 321.683594 76.757812 321.351562 77.378906 C 321.019531 77.996094 320.65625 78.601562 320.265625 79.1875 C 319.875 79.769531 319.457031 80.335938 319.011719 80.878906 C 318.566406 81.425781 318.09375 81.945312 317.597656 82.445312 L 296.015625 103.988281 C 295.570312 104.4375 295.054688 104.785156 294.46875 105.027344 C 293.886719 105.269531 293.277344 105.390625 292.644531 105.390625 Z M 258.714844 60.007812 L 292.644531 93.890625 L 310.832031 75.726562 C 311.386719 75.171875 311.882812 74.566406 312.320312 73.914062 C 312.753906 73.261719 313.125 72.570312 313.425781 71.84375 C 313.722656 71.121094 313.949219 70.371094 314.105469 69.601562 C 314.257812 68.832031 314.332031 68.054688 314.332031 67.269531 C 314.332031 66.484375 314.257812 65.707031 314.105469 64.9375 C 313.949219 64.167969 313.722656 63.421875 313.425781 62.695312 C 313.125 61.96875 312.753906 61.28125 312.320312 60.628906 C 311.882812 59.972656 311.386719 59.371094 310.832031 58.8125 L 293.835938 41.84375 C 293.28125 41.289062 292.675781 40.792969 292.019531 40.355469 C 291.367188 39.921875 290.675781 39.554688 289.949219 39.253906 C 289.222656 38.953125 288.476562 38.726562 287.703125 38.574219 C 286.933594 38.421875 286.152344 38.34375 285.367188 38.34375 C 284.582031 38.34375 283.804688 38.421875 283.03125 38.574219 C 282.261719 38.726562 281.511719 38.953125 280.785156 39.253906 C 280.058594 39.554688 279.371094 39.921875 278.714844 40.355469 C 278.0625 40.792969 277.457031 41.289062 276.898438 41.84375 Z M 258.714844 60.007812 " fill-opacity="1" fill-rule="nonzero"/><g clip-path="url(#f9b6eaf631)"><path fill="#ffffff" d="M 19.804688 337.21875 C 19.410156 337.21875 19.019531 337.171875 18.636719 337.074219 C 18.253906 336.976562 17.890625 336.835938 17.539062 336.648438 C 17.191406 336.460938 16.871094 336.230469 16.582031 335.964844 C 16.289062 335.699219 16.035156 335.398438 15.820312 335.070312 C 15.601562 334.738281 15.429688 334.386719 15.300781 334.015625 C 15.167969 333.640625 15.085938 333.257812 15.054688 332.863281 C 15.019531 332.472656 15.035156 332.078125 15.097656 331.6875 C 15.160156 331.300781 15.273438 330.921875 15.429688 330.5625 L 46.550781 258.859375 C 46.703125 258.5 46.898438 258.167969 47.132812 257.859375 C 47.371094 257.550781 47.640625 257.273438 47.941406 257.027344 C 48.246094 256.785156 48.574219 256.582031 48.929688 256.417969 C 49.28125 256.253906 49.648438 256.136719 50.03125 256.0625 C 50.414062 255.988281 50.800781 255.964844 51.1875 255.984375 C 51.578125 256.003906 51.957031 256.074219 52.332031 256.1875 C 52.703125 256.300781 53.054688 256.457031 53.390625 256.65625 C 53.722656 256.859375 54.027344 257.09375 54.304688 257.371094 L 94.984375 298.011719 C 95.257812 298.285156 95.496094 298.589844 95.699219 298.921875 C 95.898438 299.253906 96.058594 299.605469 96.171875 299.976562 C 96.285156 300.347656 96.355469 300.730469 96.375 301.117188 C 96.398438 301.503906 96.371094 301.890625 96.296875 302.269531 C 96.226562 302.652344 96.109375 303.019531 95.945312 303.375 C 95.78125 303.726562 95.578125 304.054688 95.335938 304.359375 C 95.09375 304.660156 94.816406 304.929688 94.507812 305.167969 C 94.199219 305.402344 93.867188 305.597656 93.507812 305.75 L 21.703125 336.824219 C 21.097656 337.089844 20.464844 337.21875 19.804688 337.21875 Z M 52.515625 269.074219 L 28.984375 323.289062 L 83.277344 299.792969 Z M 52.515625 269.074219 " fill-opacity="1" fill-rule="nonzero"/></g><path fill="#ffffff" d="M 131.476562 225.710938 C 131.003906 225.710938 130.542969 225.640625 130.089844 225.503906 C 129.640625 225.367188 129.21875 225.167969 128.824219 224.90625 C 128.433594 224.644531 128.085938 224.332031 127.789062 223.96875 C 127.488281 223.605469 127.25 223.203125 127.066406 222.769531 C 126.886719 222.335938 126.773438 221.882812 126.726562 221.414062 C 126.679688 220.945312 126.703125 220.480469 126.796875 220.015625 C 126.886719 219.554688 127.042969 219.117188 127.265625 218.699219 C 127.488281 218.285156 127.765625 217.910156 128.101562 217.578125 L 208.730469 137.0625 C 208.949219 136.84375 209.191406 136.644531 209.453125 136.472656 C 209.710938 136.296875 209.988281 136.152344 210.277344 136.03125 C 210.566406 135.910156 210.863281 135.820312 211.171875 135.761719 C 211.480469 135.699219 211.789062 135.667969 212.101562 135.667969 C 212.417969 135.667969 212.726562 135.699219 213.035156 135.761719 C 213.339844 135.820312 213.640625 135.910156 213.929688 136.03125 C 214.21875 136.152344 214.492188 136.296875 214.753906 136.472656 C 215.015625 136.644531 215.253906 136.84375 215.476562 137.0625 C 215.699219 137.285156 215.894531 137.527344 216.070312 137.785156 C 216.246094 138.046875 216.390625 138.320312 216.511719 138.609375 C 216.632812 138.898438 216.722656 139.195312 216.78125 139.503906 C 216.84375 139.8125 216.875 140.121094 216.875 140.433594 C 216.875 140.746094 216.84375 141.054688 216.78125 141.363281 C 216.722656 141.667969 216.632812 141.96875 216.511719 142.257812 C 216.390625 142.546875 216.246094 142.820312 216.070312 143.082031 C 215.894531 143.339844 215.699219 143.582031 215.476562 143.800781 L 134.847656 224.316406 C 133.917969 225.246094 132.792969 225.710938 131.476562 225.710938 Z M 131.476562 225.710938 " fill-opacity="1" fill-rule="nonzero"/></svg>