<svg xmlns="http://www.w3.org/2000/svg" xmlns:xlink="http://www.w3.org/1999/xlink" width="500" zoomAndPan="magnify" viewBox="0 0 375 374.999991" height="500" preserveAspectRatio="xMidYMid meet" version="1.0"><defs><clipPath id="08af1362fa"><path d="M 26 33 L 308 33 L 308 330 L 26 330 Z M 26 33 " clip-rule="nonzero"/></clipPath><clipPath id="af3aa3de56"><path d="M 44.417969 345.785156 L 9.007812 312.277344 L 273.976562 32.273438 L 309.386719 65.78125 Z M 44.417969 345.785156 " clip-rule="nonzero"/></clipPath><clipPath id="2e817d5e11"><path d="M 44.417969 345.785156 L 9.007812 312.277344 L 273.976562 32.273438 L 309.386719 65.78125 Z M 44.417969 345.785156 " clip-rule="nonzero"/></clipPath></defs><g clip-path="url(#08af1362fa)"><g clip-path="url(#af3aa3de56)"><g clip-path="url(#2e817d5e11)"><path fill="#ffffff" d="M 88.058594 291.164062 L 301.097656 66.035156 L 274.230469 40.609375 L 60.738281 266.214844 C 69.636719 274.640625 78.542969 283.066406 87.445312 291.492188 C 87.65625 291.640625 87.859375 291.402344 88.0625 291.160156 Z M 83.167969 295.050781 L 57.738281 270.988281 C 53.46875 280.269531 49.246094 289.542969 45.042969 298.820312 L 56.238281 309.414062 C 65.222656 304.976562 74.195312 300.007812 83.167969 295.050781 Z M 51.011719 312.375 L 42.535156 304.355469 C 40.113281 309.832031 37.300781 315.324219 35.160156 320.796875 C 40.445312 318.132812 45.726562 315.191406 51.011719 312.375 Z M 27.742188 329.59375 C 24.972656 327.996094 27.160156 324.394531 28.46875 321.457031 C 36.125 304.308594 43.015625 289.992188 50.613281 273.070312 C 51.824219 270.378906 52.757812 267.171875 54.152344 265.164062 C 57.632812 260.160156 63.273438 255.527344 67.96875 250.5625 C 134.058594 180.722656 200.285156 110.742188 266.890625 40.351562 C 269.363281 37.738281 272.574219 33.972656 273.738281 33.761719 C 275.46875 33.441406 279.808594 38.285156 282.503906 40.835938 L 300.097656 57.484375 C 302.589844 59.84375 307.914062 64.039062 307.953125 65.839844 C 308.019531 68.21875 298.546875 76.738281 295.074219 80.410156 L 102.386719 284.035156 C 97.695312 288.992188 93.410156 294.632812 88.71875 298.480469 C 86.734375 300.101562 83.6875 301.308594 81.027344 302.761719 C 66.175781 310.867188 51.015625 318.738281 35.785156 326.859375 C 33.910156 327.863281 29.921875 330.847656 27.742188 329.59375 " fill-opacity="1" fill-rule="evenodd"/></g></g></g></svg>