<svg xmlns="http://www.w3.org/2000/svg" xmlns:xlink="http://www.w3.org/1999/xlink" width="500" zoomAndPan="magnify" viewBox="0 0 375 374.999991" height="500" preserveAspectRatio="xMidYMid meet" version="1.0"><defs><clipPath id="cadc84503c"><path d="M 18 30 L 326.054688 30 L 326.054688 337.460938 L 18 337.460938 Z M 18 30 " clip-rule="nonzero"/></clipPath></defs><g clip-path="url(#cadc84503c)"><path fill="#dcdcdc" d="M 266.578125 33.234375 C 262.738281 29.394531 255.9375 29.394531 252.097656 33.234375 L 43.539062 241.804688 C 43.53125 241.8125 43.519531 241.824219 43.511719 241.832031 L 43.480469 241.863281 C 43.464844 241.878906 43.460938 241.902344 43.441406 241.917969 C 42.613281 242.757812 41.988281 243.773438 41.488281 244.863281 C 41.363281 245.128906 41.25 245.382812 41.152344 245.652344 C 41.0625 245.898438 40.921875 246.109375 40.851562 246.363281 L 19.199219 324.480469 C 18.21875 328.039062 19.21875 331.851562 21.828125 334.460938 C 23.777344 336.410156 26.390625 337.460938 29.070312 337.460938 C 29.980469 337.460938 30.898438 337.339844 31.808594 337.089844 L 109.925781 315.4375 C 110.179688 315.371094 110.390625 315.226562 110.636719 315.136719 C 110.910156 315.039062 111.160156 314.925781 111.425781 314.800781 C 112.515625 314.300781 113.53125 313.679688 114.371094 312.847656 C 114.386719 312.832031 114.410156 312.824219 114.425781 312.808594 L 114.457031 312.777344 C 114.46875 312.769531 114.476562 312.757812 114.484375 312.75 L 323.054688 104.191406 C 324.972656 102.269531 326.054688 99.667969 326.054688 96.949219 C 326.054688 94.234375 324.972656 91.628906 323.054688 89.710938 Z M 224.40625 89.890625 L 266.398438 131.882812 L 107.1875 291.085938 L 65.203125 249.105469 Z M 43.769531 312.519531 L 55.902344 268.765625 L 87.523438 300.386719 Z M 280.878906 117.402344 L 238.886719 75.410156 L 259.339844 54.957031 L 301.332031 96.949219 Z M 280.878906 117.402344 " fill-opacity="1" fill-rule="nonzero"/></g></svg>
