<svg xmlns="http://www.w3.org/2000/svg" xmlns:xlink="http://www.w3.org/1999/xlink" width="500" zoomAndPan="magnify" viewBox="0 0 375 374.999991" height="500" preserveAspectRatio="xMidYMid meet" version="1.0"><defs><clipPath id="c5fb5defb7"><path d="M 51.328125 2.878906 L 321.328125 2.878906 L 321.328125 374.128906 L 51.328125 374.128906 Z M 51.328125 2.878906 " clip-rule="nonzero"/></clipPath></defs><g clip-path="url(#c5fb5defb7)"><path fill="#313134" d="M 301.703125 44.855469 L 283.042969 44.855469 L 283.042969 31.496094 C 283.042969 15.757812 270.183594 2.914062 254.421875 2.914062 C 238.664062 2.914062 225.800781 15.757812 225.800781 31.496094 L 225.800781 44.855469 L 70.953125 44.855469 C 60.101562 44.855469 51.328125 53.617188 51.328125 64.457031 L 51.328125 354.492188 C 51.328125 365.332031 60.101562 374.089844 70.953125 374.089844 L 301.703125 374.089844 C 312.554688 374.089844 321.328125 365.332031 321.328125 354.492188 L 321.328125 64.457031 C 321.328125 53.617188 312.480469 44.855469 301.703125 44.855469 Z M 238.21875 31.496094 C 238.21875 22.585938 245.503906 15.3125 254.421875 15.3125 C 263.34375 15.3125 270.628906 22.585938 270.628906 31.496094 L 270.628906 44.855469 L 260.59375 44.855469 L 260.59375 34.761719 C 260.59375 31.347656 257.84375 28.601562 254.421875 28.601562 C 251.003906 28.601562 248.253906 31.347656 248.253906 34.761719 L 248.253906 44.855469 L 238.21875 44.855469 Z M 260.667969 57.253906 L 270.628906 57.253906 L 270.628906 85.539062 C 270.628906 88.285156 268.398438 90.511719 265.648438 90.511719 C 262.898438 90.511719 260.667969 88.285156 260.667969 85.539062 Z M 308.914062 354.492188 C 308.914062 358.5 305.640625 361.691406 301.703125 361.691406 L 70.953125 361.691406 C 66.9375 361.691406 63.742188 358.425781 63.742188 354.492188 L 63.742188 64.457031 C 63.742188 60.445312 67.015625 57.253906 70.953125 57.253906 L 248.253906 57.253906 L 248.253906 85.539062 C 248.253906 95.113281 256.058594 102.910156 265.648438 102.910156 C 275.238281 102.910156 283.042969 95.113281 283.042969 85.539062 L 283.042969 57.253906 L 301.703125 57.253906 C 305.71875 57.253906 308.914062 60.519531 308.914062 64.457031 Z M 308.914062 354.492188 " fill-opacity="1" fill-rule="nonzero"/></g><path fill="#313134" d="M 280.589844 137.132812 L 99.5 137.132812 C 96.082031 137.132812 93.328125 139.878906 93.328125 143.292969 C 93.328125 146.707031 96.082031 149.453125 99.5 149.453125 L 280.515625 149.453125 C 283.933594 149.453125 286.6875 146.707031 286.6875 143.292969 C 286.6875 139.878906 284.011719 137.132812 280.589844 137.132812 Z M 280.589844 137.132812 " fill-opacity="1" fill-rule="nonzero"/><path fill="#313134" d="M 280.589844 193.03125 L 99.5 193.03125 C 96.082031 193.03125 93.328125 195.777344 93.328125 199.191406 C 93.328125 202.605469 96.082031 205.355469 99.5 205.355469 L 280.515625 205.355469 C 283.933594 205.355469 286.6875 202.605469 286.6875 199.191406 C 286.6875 195.777344 284.011719 193.03125 280.589844 193.03125 Z M 280.589844 193.03125 " fill-opacity="1" fill-rule="nonzero"/><path fill="#313134" d="M 218.964844 248.929688 L 99.5 248.929688 C 96.082031 248.929688 93.328125 251.675781 93.328125 255.089844 C 93.328125 258.507812 96.082031 261.253906 99.5 261.253906 L 218.964844 261.253906 C 222.382812 261.253906 225.132812 258.507812 225.132812 255.089844 C 225.207031 251.75 222.382812 248.929688 218.964844 248.929688 Z M 218.964844 248.929688 " fill-opacity="1" fill-rule="nonzero"/></svg>