<svg xmlns="http://www.w3.org/2000/svg" xmlns:xlink="http://www.w3.org/1999/xlink" width="500" zoomAndPan="magnify" viewBox="0 0 375 299.999988" height="400" preserveAspectRatio="xMidYMid meet" version="1.0"><defs><clipPath id="41c8b1149e"><path d="M 20.738281 13.664062 L 354.292969 13.664062 L 354.292969 286.664062 L 20.738281 286.664062 Z M 20.738281 13.664062 " clip-rule="nonzero"/></clipPath></defs><g clip-path="url(#41c8b1149e)"><path fill="#313134" d="M 343.449219 89.238281 C 343.066406 124.40625 343.574219 246.105469 343.449219 272.578125 C 343.449219 273.585938 340.667969 275.882812 338.035156 275.882812 L 35.980469 275.882812 C 33.9375 275.882812 31.601562 274.105469 31.589844 272.558594 C 31.449219 240.542969 31.625 118.191406 31.589844 89.296875 C 31.585938 85.632812 31.519531 83.117188 35.074219 83.105469 C 37.496094 83.09375 336.035156 82.910156 339.160156 83.105469 C 342.660156 83.320312 343.71875 85.683594 343.449219 89.238281 Z M 51.511719 30.695312 C 51.511719 27.25 54.308594 24.445312 57.742188 24.445312 L 119.765625 24.4375 C 138.804688 25.828125 152.597656 38.570312 160.832031 46.183594 C 165.96875 50.925781 168.789062 53.53125 172.488281 53.53125 C 174.191406 53.519531 316.1875 53.53125 316.1875 53.53125 C 319.621094 53.53125 322.421875 56.335938 322.421875 59.78125 L 322.421875 72.347656 C 303.492188 72.363281 83.566406 72.355469 51.511719 72.339844 Z M 354.214844 89.523438 C 354.738281 82.898438 352.46875 78.921875 350.472656 76.761719 C 348.601562 74.734375 345.125 72.324219 338.835938 72.324219 C 338.417969 72.328125 336.5 72.332031 333.1875 72.339844 L 333.1875 59.78125 C 333.1875 50.390625 325.558594 42.75 316.183594 42.75 C 316.183594 42.75 177.222656 42.734375 173.277344 42.746094 C 172.175781 41.996094 169.960938 39.949219 168.144531 38.273438 C 158.871094 29.695312 143.351562 15.347656 120.164062 13.664062 L 57.742188 13.664062 C 48.367188 13.664062 40.742188 21.304688 40.742188 30.695312 L 40.742188 72.332031 C 37.445312 72.328125 35.4375 72.328125 34.988281 72.324219 C 29.824219 72.324219 19.703125 72.511719 20.824219 89.320312 C 20.789062 119.65625 20.675781 240.570312 20.824219 272.617188 C 20.863281 280.101562 27.949219 286.664062 35.980469 286.664062 L 338.03125 286.664062 C 345.65625 286.664062 354.203125 280.648438 354.222656 272.613281 C 354.347656 246.128906 353.835938 124.445312 354.214844 89.523438 " fill-opacity="1" fill-rule="nonzero"/></g></svg>