<svg xmlns="http://www.w3.org/2000/svg" xmlns:xlink="http://www.w3.org/1999/xlink" width="500" zoomAndPan="magnify" viewBox="0 0 375 374.999991" height="500" preserveAspectRatio="xMidYMid meet" version="1.0"><defs><clipPath id="44be6a4004"><path d="M 11 37.5 L 345 37.5 L 345 102 L 11 102 Z M 11 37.5 " clip-rule="nonzero"/></clipPath></defs><g clip-path="url(#44be6a4004)"><path fill="#313134" d="M 122.480469 100.738281 L 321.609375 100.738281 C 328.664062 100.738281 337.167969 99.921875 344.386719 101.808594 L 344.386719 74.132812 C 344.386719 65.203125 337.074219 57.941406 328.089844 57.941406 L 131.179688 57.941406 L 112.53125 40.167969 C 110.78125 38.503906 108.460938 37.574219 106.054688 37.574219 L 27.441406 37.574219 C 18.457031 37.574219 11.152344 44.839844 11.152344 53.773438 L 11.152344 91.710938 C 11.144531 91.765625 11.136719 91.8125 11.132812 91.863281 L 11.132812 101.683594 C 14.300781 101.023438 18 100.742188 22.28125 100.742188 C 55.683594 100.738281 89.078125 100.738281 122.480469 100.738281 Z M 122.480469 100.738281 " fill-opacity="1" fill-rule="nonzero"/></g><path fill="#313134" d="M 269.335938 145.082031 C 297.566406 145.65625 323.078125 156.058594 342.722656 173.027344 L 342.722656 126.554688 C 342.722656 120.164062 344.042969 116.417969 335.164062 116.417969 L 19.914062 116.417969 C 10.539062 116.417969 12.195312 119.6875 12.195312 126.554688 L 12.195312 284.171875 C 12.195312 290.304688 7.695312 318.867188 20.113281 318.867188 L 173.789062 318.867188 C 162.375 301.445312 155.761719 280.757812 156.214844 258.367188 C 157.441406 197.652344 206.800781 143.8125 269.335938 145.082031 Z M 269.335938 145.082031 " fill-opacity="1" fill-rule="nonzero"/><path fill="#313134" d="M 269.335938 160.761719 C 217.039062 161.820312 170.777344 204.351562 171.871094 258.367188 C 172.929688 310.734375 215.398438 357.0625 269.335938 355.96875 C 323.273438 354.875 365.710938 312.378906 366.808594 258.367188 C 365.75 205.992188 323.273438 159.664062 269.335938 160.761719 Z M 313.109375 270.417969 L 278.726562 270.417969 L 278.726562 304.867188 C 278.726562 320.035156 255.242188 320.035156 255.242188 304.867188 L 255.242188 270.417969 L 220.851562 270.417969 C 205.707031 270.417969 205.707031 246.902344 220.851562 246.902344 L 255.242188 246.902344 L 255.242188 212.476562 C 255.242188 197.308594 278.726562 197.308594 278.726562 212.476562 L 278.726562 246.902344 L 313.109375 246.902344 C 328.25 246.902344 328.25 270.417969 313.109375 270.417969 Z M 313.109375 270.417969 " fill-opacity="1" fill-rule="nonzero"/></svg>